<!--?xml version="1.0" encoding="utf-8"?-->
<!-- Generator: Adobe Illustrator 18.0.0, SVG Export Plug-In . SVG Version: 6.00 Build 0)  -->

<svg version="1.1" id="_x31_0" xmlns="http://www.w3.org/2000/svg" xmlns:xlink="http://www.w3.org/1999/xlink" x="0px" y="0px" viewBox="0 0 512 512" style="width: 512px; height: 512px; opacity: 1;" xml:space="preserve">
<style type="text/css">
	.st0{fill:#374149;}
</style>
<g>
	<path class="st0" d="M320.521,55.587l-0.23-0.23l0,0l-0.114-0.114L72.553,302.864L29.358,441.22
		c-2.031,6.501,3.266,12.9,9.602,12.9c0.934,0,1.894-0.141,2.856-0.438l138.356-43.199l246.976-246.976l0.535-0.531v-0.004
		l0.113-0.114L320.521,55.587z M134.414,335.781l-26.757-26.756l138.161-138.166l79.578-79.578l26.757,26.761L134.414,335.781z
		 M165.174,392.333l-83.312,26.014l-17.17-17.17l26.034-83.394l37.265,37.261l25.554,25.554L165.174,392.333z M174.011,375.382
		l-26.756-26.761l217.738-217.738l26.76,26.756l-79.578,79.578L174.199,375.194L174.011,375.382z" style="fill: rgb(75, 75, 75);"></path>
	<polygon class="st0" points="327.866,47.29 327.866,47.29 327.866,47.29 327.752,47.403 435.633,155.284 455.111,135.806 
		347.23,27.929 	" style="fill: rgb(75, 75, 75);"></polygon>
	<path class="st0" d="M458.748,24.287c-28.982-28.983-72.889-32.378-99.36-8.29c-0.661,0.59-1.352,1.137-1.985,1.754l0.004,0.007
		c-0.035,0.039-0.078,0.07-0.118,0.106l20.393,20.393l0.043,0.043l0,0l0.113,0.113c3.711-3.707,8.181-6.309,13.087-7.844
		c0.027-0.012,0.055-0.016,0.078-0.024c2.438-0.754,4.981-1.25,7.59-1.484c0.016,0,0.031-0.004,0.047-0.004
		c13.177-1.16,28.057,4.278,39.558,15.778c18.412,18.412,21.295,45.493,6.419,60.362l20.552,20.548
		C491.373,99.544,488.49,54.029,458.748,24.287z" style="fill: rgb(75, 75, 75);"></path>
	<rect x="99.985" y="479.997" class="st0" width="312.029" height="32.003" style="fill: rgb(75, 75, 75);"></rect>
</g>
</svg>
