<!--?xml version="1.0" encoding="utf-8"?-->
<!-- Generator: Adobe Illustrator 18.0.0, SVG Export Plug-In . SVG Version: 6.00 Build 0)  -->

<svg version="1.1" id="_x31_0" xmlns="http://www.w3.org/2000/svg" xmlns:xlink="http://www.w3.org/1999/xlink" x="0px" y="0px" viewBox="0 0 512 512" style="width: 256px; height: 256px; opacity: 1;" xml:space="preserve">
<style type="text/css">
	.st0{fill:#374149;}
</style>
<g>
	<path class="st0" d="M455.295,207.516v-0.23l-37.351,37.402v213.214c0,8.582-7.25,15.824-15.828,15.824H53.176
		c-4.203,0-8.165-1.68-11.082-4.656c-2.996-2.902-4.738-6.954-4.738-11.168V108.961c0-8.726,7.098-15.828,15.821-15.828H265.57
		l21.816-21.781l15.59-15.406h-0.161l0.161-0.16h-249.8C23.855,55.786,0,79.641,0,108.961v348.941
		c0,14.152,5.547,27.488,15.656,37.594c9.985,10.046,23.309,15.586,37.52,15.586h348.94c29.328,0,53.179-23.859,53.179-53.179
		V311.18l0.118-103.781L455.295,207.516z" style="fill: rgb(75, 75, 75);"></path>
	<path class="st0" d="M430.811,32.633c-2.094-2.102-4.84-3.164-7.527-3.164c-2.531,0.004-5.019,0.938-6.902,2.821L138.414,310.094
		L79.973,423.632c-1.18,3.774,1.894,7.477,5.566,7.477c0.538,0,1.098-0.082,1.656-0.258L200.8,372.449L478.772,94.645
		c3.89-3.89,3.738-10.352-0.336-14.43L430.811,32.633z M116.312,394.437l36.406-70.726l26.382,26.367l8.031,8.094l-39.25,20.18
		L116.312,394.437z M199.656,346.804l-35.586-35.566L423.429,52.032l35.586,35.57l-257.89,257.734L199.656,346.804z" style="fill: rgb(75, 75, 75);"></path>
	<path class="st0" d="M507.065,39.579l-33.758-33.73c-3.285-3.289-7.594-4.93-11.906-4.93c-4.312,0-8.625,1.645-11.914,4.926
		l-11.801,11.793v0.004l0,0l-0.118,0.11l57.582,57.546l11.914-11.902C513.647,56.817,513.643,46.153,507.065,39.579z" style="fill: rgb(75, 75, 75);"></path>
</g>
</svg>
